<svg width="35px" height="35px" viewBox="0 0 34 35" xmlns="http://www.w3.org/2000/svg">
  <path
    d="M22.25 17.6753C22.25 19.0658 21.6968 20.3994 20.7123 21.3826C19.7277 22.3658 18.3923 22.9182 17 22.9182C15.6076 22.9182 14.2722 22.3658 13.2876 21.3826C12.3031 20.3994 11.75 19.0658 11.75 17.6753C11.75 17.3764 11.7815 17.0846 11.8357 16.8015H9.99995V23.7868C9.99995 24.2726 10.3937 24.6659 10.8802 24.6659H23.1215C23.3546 24.6654 23.5781 24.5726 23.7428 24.4078C23.9075 24.243 24 24.0196 24 23.7868V16.8015H22.1642C22.2185 17.0846 22.25 17.3764 22.25 17.6753ZM17 21.1706C17.4597 21.1705 17.9149 21.0799 18.3396 20.9041C18.7643 20.7283 19.1502 20.4707 19.4752 20.146C19.8002 19.8212 20.058 19.4357 20.2338 19.0115C20.4096 18.5873 20.5001 18.1327 20.5 17.6735C20.4998 17.2144 20.4092 16.7598 20.2331 16.3357C20.0571 15.9116 19.7991 15.5262 19.474 15.2016C19.1488 14.8771 18.7628 14.6197 18.338 14.4441C17.9132 14.2685 17.4579 14.1782 16.9982 14.1783C16.0697 14.1785 15.1793 14.5471 14.523 15.2029C13.8666 15.8587 13.498 16.7481 13.4982 17.6753C13.4984 18.6025 13.8675 19.4917 14.5242 20.1472C15.1809 20.8027 16.0715 21.1708 17 21.1706ZM21.2 14.0052H23.2982C23.4376 14.0052 23.5713 13.9501 23.6701 13.8518C23.7688 13.7535 23.8245 13.6202 23.825 13.481V11.3855C23.825 11.246 23.7695 11.1122 23.6707 11.0136C23.5719 10.9149 23.4379 10.8595 23.2982 10.8595H21.2C21.0603 10.8595 20.9263 10.9149 20.8275 11.0136C20.7287 11.1122 20.6732 11.246 20.6732 11.3855V13.481C20.675 13.7693 20.9112 14.0052 21.2 14.0052ZM17 0.897949C12.5443 0.897949 8.27117 2.66556 5.12056 5.81192C1.96995 8.95828 0.199951 13.2257 0.199951 17.6753C0.199951 22.1249 1.96995 26.3923 5.12056 29.5387C8.27117 32.685 12.5443 34.4526 17 34.4526C19.2062 34.4526 21.3908 34.0187 23.429 33.1755C25.4673 32.3324 27.3193 31.0966 28.8794 29.5387C30.4394 27.9807 31.6769 26.1312 32.5211 24.0957C33.3654 22.0602 33.8 19.8785 33.8 17.6753C33.8 15.4721 33.3654 13.2904 32.5211 11.2549C31.6769 9.21936 30.4394 7.36984 28.8794 5.81192C27.3193 4.254 25.4673 3.01819 23.429 2.17505C21.3908 1.33191 19.2062 0.897949 17 0.897949ZM25.75 24.4719C25.75 25.5397 24.875 26.4135 23.8057 26.4135H10.1942C9.12495 26.4135 8.24995 25.5397 8.24995 24.4719V10.8787C8.24995 9.81091 9.12495 8.93709 10.1942 8.93709H23.8057C24.875 8.93709 25.75 9.81091 25.75 10.8787V24.4719Z" />
</svg>