<svg width="1060" height="537.77" viewBox="0 0 1060 537.77" class="network" fill="none"
  xmlns="http://www.w3.org/2000/svg">
  <circle cx="823.504" cy="363.498" r="10.4841" fill="white" id="1" />
  <circle cx="823.505" cy="363.498" r="7.8878" fill="white" stroke="#F53838" stroke-width="1.48121" id="2" />
  <circle cx="823.504" cy="363.499" r="3.78207" fill="#F53838" id="3" />
  <circle cx="859.659" cy="426.398" r="17.7102" fill="white" id="4" />
  <circle cx="859.659" cy="426.399" r="13.3244" fill="white" stroke="#F53838" stroke-width="2.50213" id="5" />
  <circle cx="859.659" cy="426.399" r="6.38884" fill="#F53838" id="6" />
  <circle cx="575.656" cy="400.774" r="18.3702" fill="white" id="7" />
  <circle cx="575.657" cy="400.774" r="13.821" fill="white" stroke="#F53838" stroke-width="2.59537" id="8" />
  <circle cx="575.656" cy="400.775" r="6.62692" fill="#F53838" id="9" />
  <circle cx="486.906" cy="282.054" r="12.8124" fill="white" id="10" />
  <circle cx="486.906" cy="282.054" r="9.63949" fill="white" stroke="#F53838" stroke-width="1.81015" id="11" />
  <circle cx="486.905" cy="282.054" r="4.62197" fill="#F53838" id="12" />
  <circle cx="586.201" cy="299.488" r="21.6937" fill="white" id="13" />
  <circle cx="586.201" cy="299.489" r="16.3214" fill="white" stroke="#F53838" stroke-width="3.06492" id="14" />
  <circle cx="586.201" cy="299.489" r="7.82584" fill="#F53838" id="15" />
  <circle cx="734.119" cy="258.697" r="17.6608" fill="white" id="16" />
  <circle cx="734.119" cy="258.697" r="13.2872" fill="white" stroke="#F53838" stroke-width="2.49515" id="17" />
  <circle cx="734.119" cy="258.698" r="6.37101" fill="#F53838" id="18" />
  <circle cx="1005" cy="97.5253" r="12.8124" fill="white" id="19" />
  <circle cx="1005" cy="97.5255" r="9.63949" fill="white" stroke="#F53838" stroke-width="1.81015" id="20" />
  <circle cx="1005" cy="97.5258" r="4.62197" fill="#F53838" id="21" />
  <circle cx="778.133" cy="153.362" r="21.6599" fill="white" id="22" />
  <circle cx="778.133" cy="153.362" r="16.296" fill="white" stroke="#F53838" stroke-width="3.06015" id="23" />
  <circle cx="778.133" cy="153.363" r="7.81367" fill="#F53838" id="24" />
  <circle cx="672.5" cy="131.702" r="16.8887" fill="white" id="25" />
  <circle cx="672.5" cy="131.702" r="12.7064" fill="white" stroke="#F53838" stroke-width="2.38607" id="26" />
  <circle cx="672.5" cy="131.703" r="6.09249" fill="#F53838" id="27" />
  <circle cx="573.604" cy="178.019" r="17.1711" fill="white" id="28" />
  <circle cx="573.604" cy="178.019" r="12.9188" fill="white" stroke="#F53838" stroke-width="2.42596" id="29" />
  <circle cx="573.604" cy="178.02" r="6.19436" fill="#F53838" id="30" />
  <circle cx="530" cy="116.59" r="12.8124" fill="white" id="31" />
  <circle cx="530" cy="116.59" r="9.63949" fill="white" stroke="#F53838" stroke-width="1.81015" id="32" />
  <circle cx="530" cy="116.591" r="4.62197" fill="#F53838" id="33" />
  <circle cx="429.017" cy="27.5653" r="10.5655" fill="white" id="34" />
  <circle cx="429.017" cy="27.5655" r="7.94908" fill="white" stroke="#F53838" stroke-width="1.49272" id="35" />
  <circle cx="429.017" cy="27.5657" r="3.81145" fill="#F53838" id="36" />
  <circle cx="367.16" cy="106.046" r="7.63899" fill="white" id="37" />
  <circle cx="367.16" cy="106.046" r="5.74726" fill="white" stroke="#F53838" stroke-width="1.07925" id="38" />
  <circle cx="367.159" cy="106.046" r="2.75571" fill="#F53838" id="39" />
  <circle cx="741.758" cy="83.3267" r="7.63899" fill="white" id="40" />
  <circle cx="741.758" cy="83.3269" r="5.74726" fill="white" stroke="#F53838" stroke-width="1.07925" id="41" />
  <circle cx="741.758" cy="83.3271" r="2.75571" fill="#F53838" id="42" />
  <circle cx="365.048" cy="40.378" r="12.8124" fill="white" id="43" />
  <circle cx="365.049" cy="40.3783" r="9.63949" fill="white" stroke="#F53838" stroke-width="1.81015" id="44" />
  <circle cx="365.048" cy="40.3786" r="4.62197" fill="#F53838" id="45" />
  <circle cx="279.688" cy="10.1315" r="9.77574" fill="white" id="46" />
  <circle cx="279.688" cy="10.1316" r="7.35487" fill="white" stroke="#F53838" stroke-width="1.38113" id="47" />
  <circle cx="279.687" cy="10.1319" r="3.52653" fill="#F53838" id="48" />
  <circle cx="877.369" cy="103.009" r="9.77574" fill="white" id="49" />
  <circle cx="877.369" cy="103.009" r="7.35487" fill="white" stroke="#F53838" stroke-width="1.38113" id="50" />
  <circle cx="877.369" cy="103.009" r="3.52653" fill="#F53838" id="51" />
  <circle cx="807.838" cy="227.766" r="9.77574" fill="white" id="52" />
  <circle cx="807.838" cy="227.767" r="7.35487" fill="white" stroke="#F53838" stroke-width="1.38113" id="53" />
  <circle cx="807.838" cy="227.767" r="3.52653" fill="#F53838" id="54" />
  <circle cx="292.5" cy="148.739" r="12.8124" fill="white" id="55" />
  <circle cx="292.5" cy="148.74" r="9.63949" fill="white" stroke="#F53838" stroke-width="1.81015" id="56" />
  <circle cx="292.5" cy="148.74" r="4.62197" fill="#F53838" id="57" />
  <circle cx="305.313" cy="454.748" r="12.8124" fill="white" id="58" />
  <circle cx="305.313" cy="454.748" r="9.63949" fill="white" stroke="#F53838" stroke-width="1.81015" id="59" />
  <circle cx="305.312" cy="454.748" r="4.62197" fill="#F53838" id="60" />
  <circle cx="333.291" cy="383.34" r="17.434" fill="white" id="61" />
  <circle cx="333.292" cy="383.34" r="13.1166" fill="white" stroke="#F53838" stroke-width="2.46311" id="62" />
  <circle cx="333.291" cy="383.34" r="6.2892" fill="#F53838" id="63" />
  <circle cx="377.861" cy="372.127" r="8.4881" fill="white" id="64" />
  <circle cx="377.861" cy="372.127" r="6.38609" fill="white" stroke="#F53838" stroke-width="1.19921" id="65" />
  <circle cx="377.861" cy="372.127" r="3.06202" fill="#F53838" id="66" />
  <circle cx="291.836" cy="330.155" r="12.8124" fill="white" id="67" />
  <circle cx="291.836" cy="330.155" r="9.63949" fill="white" stroke="#F53838" stroke-width="1.81015" id="68" />
  <circle cx="291.836" cy="330.156" r="4.62197" fill="#F53838" id="69" />
  <circle cx="44.0115" cy="103.818" r="8.51534" fill="white" id="70" />
  <circle cx="44.0116" cy="103.818" r="6.40659" fill="white" stroke="#F53838" stroke-width="1.20306" id="71" />
  <circle cx="44.0114" cy="103.818" r="3.07185" fill="#F53838" id="72" />
  <circle cx="207.728" cy="106.85" r="12.8124" fill="white" id="73" />
  <circle cx="207.728" cy="106.85" r="9.63949" fill="white" stroke="#F53838" stroke-width="1.81015" id="74" />
  <circle cx="207.728" cy="106.85" r="4.62197" fill="#F53838" id="75" />
  <circle cx="131.498" cy="97.5248" r="12.8124" fill="white" id="76" />
  <circle cx="131.498" cy="97.525" r="9.63949" fill="white" stroke="#F53838" stroke-width="1.81015" id="79" />
  <circle cx="131.498" cy="97.5253" r="4.62197" fill="#F53838" id="78" />
  <circle cx="178.45" cy="161.552" r="18.7342" fill="white" id="79" />
  <circle cx="178.45" cy="161.552" r="14.0949" fill="white" stroke="#F53838" stroke-width="2.64681" id="80" />
  <circle cx="178.449" cy="161.552" r="6.75825" fill="#F53838" id="81" />
  <circle cx="198.996" cy="248.153" r="10.6104" fill="white" id="82" />
  <circle cx="198.996" cy="248.153" r="7.98284" fill="white" stroke="#F53838" stroke-width="1.49906" id="83" />
  <circle cx="198.996" cy="248.153" r="3.82764" fill="#F53838" id="84" />
  <circle cx="252.832" cy="214.663" r="11.2715" fill="white" id="85" />
  <circle cx="252.833" cy="214.663" r="8.48018" fill="white" stroke="#F53838" stroke-width="1.59245" id="86" />
  <circle cx="252.832" cy="214.663" r="4.0661" fill="#F53838" id="87" />
  <circle cx="929.422" cy="446.71" r="9.76665" fill="white" id="88" />
  <circle cx="929.423" cy="446.71" r="7.34803" fill="white" stroke="#F53838" stroke-width="1.37985" id="89" />
  <circle cx="929.422" cy="446.71" r="3.52325" fill="#F53838" id="90" />
</svg>