<svg width="35px" height="35px" viewBox="0 0 35 35" xmlns="http://www.w3.org/2000/svg">
  <path
    d="M17.4 0.897949C8.12148 0.897949 0.599976 8.40931 0.599976 17.6753C0.599976 26.9413 8.12148 34.4526 17.4 34.4526C26.6785 34.4526 34.2 26.9413 34.2 17.6753C34.2 8.40931 26.6785 0.897949 17.4 0.897949ZM24.2337 14.6414C24.2407 14.7847 24.2425 14.928 24.2425 15.0678C24.2425 19.4369 20.9157 24.4719 14.8292 24.4719C13.0307 24.4748 11.2697 23.959 9.75773 22.9864C10.015 23.0178 10.2792 23.0301 10.547 23.0301C12.0975 23.0301 13.5237 22.504 14.656 21.6162C13.966 21.6027 13.2974 21.3745 12.7434 20.9635C12.1894 20.5525 11.7777 19.9791 11.5655 19.3233C12.061 19.4174 12.5715 19.3977 13.0582 19.2656C12.3093 19.1144 11.6358 18.7092 11.152 18.1186C10.6681 17.5281 10.4037 16.7886 10.4035 16.0255V15.9853C10.8497 16.2317 11.3607 16.382 11.9032 16.3995C11.2011 15.9328 10.7041 15.2158 10.5138 14.3952C10.3235 13.5746 10.4543 12.7124 10.8795 11.985C11.7106 13.0056 12.7472 13.8405 13.922 14.4357C15.0968 15.0309 16.3836 15.3731 17.6992 15.4401C17.532 14.7311 17.604 13.9867 17.904 13.3228C18.204 12.6589 18.7153 12.1125 19.3584 11.7687C20.0014 11.4249 20.7402 11.3029 21.4598 11.4217C22.1794 11.5404 22.8396 11.8933 23.3377 12.4254C24.0783 12.2791 24.7884 12.0078 25.4377 11.6232C25.1909 12.3889 24.6742 13.0391 23.9835 13.453C24.6395 13.3741 25.28 13.198 25.884 12.9304C25.4403 13.5944 24.8815 14.1738 24.2337 14.6414Z" />
</svg>